<!-- Generated by IcoMoon.io -->
<svg version="1.1" xmlns="http://www.w3.org/2000/svg" width="352" height="448" viewBox="0 0 352 448">
<title></title>
<g id="icomoon-ignore">
</g>
<path fill="#000" d="M144 384l24-112-24-32-32-16zM208 384l32-160-32 16-24 32zM248 131.5c-0.25-0.5-0.5-1-1-1.5-2.25-1.75-20.25-2-24-2-14.25 0-27.75 2-41.75 4.75-1.75 0.5-3.5 0.5-5.25 0.5s-3.5 0-5.25-0.5c-14-2.75-27.5-4.75-41.75-4.75-3.75 0-21.75 0.25-24 2-0.5 0.5-0.75 1-1 1.5 0.25 2.25 0.5 4.5 1 6.75 1.5 2 2.75 1.25 3.75 4.25 6.5 17.75 9.5 31.5 32 31.5 32.25 0 23.25-29.75 33.75-29.75h3c10.5 0 1.5 29.75 33.75 29.75 22.5 0 25.5-13.75 32-31.5 1-3 2.25-2.25 3.75-4.25 0.5-2.25 0.75-4.5 1-6.75zM352 351.25c0 40.75-26.75 64.75-66.75 64.75h-218.5c-40 0-66.75-24-66.75-64.75 0-45.25 8-113.75 54.5-136.25l-22.5-55h53.5c-3.5-10.25-5.5-21-5.5-32 0-2.75 0.25-5.5 0.5-8-9.75-2-48.5-10-48.5-24 0-14.75 42.5-22.75 52.5-24.75 5.25-18.75 17.75-47.25 30.5-62 5-5.75 11.25-9.25 19-9.25 15 0 27 15.5 42 15.5s27-15.5 42-15.5c7.75 0 14 3.5 19 9.25 12.75 14.75 25.25 43.25 30.5 62 10 2 52.5 10 52.5 24.75 0 14-38.75 22-48.5 24 1.25 13.5-0.5 27-5 40h53.5l-20.5 56.25c44.75 23.25 52.5 90.5 52.5 135z"></path>
</svg>
